<?xml version="1.0" encoding="utf-8"?>
<!-- Generator: Adobe Illustrator 19.0.0, SVG Export Plug-In . SVG Version: 6.00 Build 0)  -->
<svg version="1.1" id="Layer_1" xmlns="http://www.w3.org/2000/svg" xmlns:xlink="http://www.w3.org/1999/xlink" x="0px" y="0px"
	 viewBox="-303 281.6 178.8 174.4" style="enable-background:new -303 281.6 178.8 174.4;" xml:space="preserve">
<style type="text/css">
	.st0{fill:none;stroke:#191717;stroke-width:5;stroke-miterlimit:10;}
</style>
<g>
	<path class="st0" d="M-213.5,287.3c-46.9,0-84.9,37.9-84.9,84.9c0,37.5,24.3,69.3,58,80.5c4.2,0.8,5.8-1.8,5.8-4.1
		c0-2-0.1-8.7-0.1-15.7c-23.6,5.1-28.5-10.1-28.5-10.1c-3.8-9.8-9.4-12.4-9.4-12.4c-7.7-5.2,0.6-5.2,0.6-5.2
		c8.6,0.6,13.1,8.7,13.1,8.7c7.6,12.9,19.8,9.3,24.7,7c0.7-5.5,3-9.3,5.3-11.4c-18.8-2-38.6-9.3-38.6-41.9c0-9.3,3.4-16.9,8.7-22.8
		c-0.8-2.1-3.8-10.8,0.8-22.5c0,0,7.2-2.2,23.3,8.7c6.7-1.8,14.1-2.8,21.2-2.8c7.2,0,14.5,1,21.2,2.8c16.2-11,23.3-8.7,23.3-8.7
		c4.6,11.7,1.7,20.4,0.8,22.5c5.5,5.9,8.7,13.5,8.7,22.8c0,32.6-19.8,39.8-38.8,41.9c3.1,2.7,5.8,7.7,5.8,15.7
		c0,11.4-0.1,20.5-0.1,23.3c0,2.2,1.5,4.9,5.8,4.1c33.7-11.2,58-43,58-80.5C-128.7,325.3-166.7,287.3-213.5,287.3z"/>
	<path class="st0" d="M-266.2,409.2c-0.1,0.4-0.8,0.6-1.4,0.3c-0.6-0.3-1-0.8-0.7-1.3c0.1-0.4,0.8-0.6,1.4-0.3
		C-266.4,408.2-266.1,408.7-266.2,409.2L-266.2,409.2z"/>
	<path class="st0" d="M-262.9,413c-0.4,0.4-1.3,0.1-1.7-0.4c-0.6-0.6-0.7-1.4-0.3-1.8c0.4-0.4,1.1-0.1,1.7,0.4
		C-262.6,411.8-262.4,412.7-262.9,413L-262.9,413z"/>
	<path class="st0" d="M-259.5,417.9c-0.6,0.4-1.4,0-1.8-0.7c-0.6-0.7-0.6-1.7,0-2c0.6-0.4,1.4,0,1.8,0.7
		C-258.9,416.6-258.9,417.5-259.5,417.9L-259.5,417.9z"/>
	<path class="st0" d="M-254.8,422.7c-0.4,0.6-1.4,0.4-2.2-0.3c-0.7-0.7-1-1.7-0.4-2.1c0.4-0.6,1.4-0.4,2.2,0.3
		C-254.6,421.1-254.4,422.1-254.8,422.7L-254.8,422.7z"/>
	<path class="st0" d="M-248.5,425.3c-0.1,0.7-1.1,1-2.1,0.7c-1-0.3-1.5-1.1-1.4-1.7c0.1-0.7,1.1-1,2.1-0.7
		C-248.9,423.9-248.4,424.6-248.5,425.3L-248.5,425.3z"/>
	<path class="st0" d="M-241.6,425.9c0,0.7-0.8,1.3-1.8,1.3s-1.8-0.6-1.8-1.3s0.8-1.3,1.8-1.3C-242.5,424.6-241.6,425.2-241.6,425.9
		L-241.6,425.9z"/>
	<path class="st0" d="M-235.2,424.8c0.1,0.7-0.6,1.4-1.5,1.5c-1,0.1-1.8-0.3-2-1c-0.1-0.7,0.6-1.4,1.5-1.5
		C-236.2,423.6-235.3,424.1-235.2,424.8L-235.2,424.8z"/>
</g>
</svg>
