<?xml version="1.0" encoding="utf-8"?>
<!-- Generator: Adobe Illustrator 19.0.0, SVG Export Plug-In . SVG Version: 6.00 Build 0)  -->
<svg version="1.1" id="Layer_1" xmlns="http://www.w3.org/2000/svg" xmlns:xlink="http://www.w3.org/1999/xlink" x="0px" y="0px"
	 viewBox="-342.9 299.1 127.9 127.9" style="enable-background:new -342.9 299.1 127.9 127.9;" xml:space="preserve">
<style type="text/css">
	.st0{fill:none;stroke:#000000;stroke-width:3;stroke-miterlimit:10;}
</style>
<path class="st0" d="M-244.2,393.4v-24c0-12.9-7-18.8-16.1-18.8c-7.4,0-10.7,4.1-12.6,7v-5.9h-14c0.2,3.9,0,41.8,0,41.8h14v-23.3
	c0-1.2,0-2.5,0.4-3.5c1-2.5,3.3-5.1,7.2-5.1c5.2,0,7,3.9,7,9.4v22.3L-244.2,393.4L-244.2,393.4z M-301.6,346c5,0,7.8-3.3,7.8-7.2
	c0-4.1-3.1-7.2-7.8-7.2s-7.8,3.1-7.8,7.2C-309.4,342.9-306.5,346-301.6,346L-301.6,346z M-278.9,426c-34.3,0-61.9-27.4-61.9-61.4
	s27.7-61.4,61.9-61.4s61.9,27.4,61.9,61.4S-244.6,426-278.9,426z M-294.6,393.4v-41.8h-14v41.8H-294.6z"/>
</svg>
