<?xml version="1.0" encoding="utf-8"?>
<!-- Generator: Adobe Illustrator 19.0.0, SVG Export Plug-In . SVG Version: 6.00 Build 0)  -->
<svg version="1.1" id="Layer_1" xmlns="http://www.w3.org/2000/svg" xmlns:xlink="http://www.w3.org/1999/xlink" x="0px" y="0px"
	 viewBox="-241 335.5 128.8 122.5" style="enable-background:new -241 335.5 128.8 122.5;" xml:space="preserve">
<style type="text/css">
	.st0{fill:#5B5A5A;}
</style>
<g id="XMLID_2_">
	<path id="XMLID_24_" class="st0" d="M-178.6,337.4c-33.4,0-60.4,27.1-60.4,60.4c0,26.7,17.3,49.3,41.3,57.3c3,0.6,4.1-1.3,4.1-2.9
		c0-1.4-0.1-6.2-0.1-11.2c-16.8,3.6-20.3-7.2-20.3-7.2c-2.7-7-6.7-8.8-6.7-8.8c-5.5-3.7,0.4-3.7,0.4-3.7c6.1,0.4,9.3,6.2,9.3,6.2
		c5.4,9.2,14.1,6.6,17.6,5c0.5-3.9,2.1-6.6,3.8-8.1c-13.4-1.5-27.5-6.7-27.5-29.8c0-6.6,2.4-12,6.2-16.2c-0.6-1.5-2.7-7.7,0.6-16
		c0,0,5.1-1.6,16.6,6.2c4.8-1.3,10-2,15.1-2c5.1,0,10.3,0.7,15.1,2c11.5-7.7,16.6-6.1,16.6-6.1c3.3,8.3,1.2,14.5,0.6,16
		c3.9,4.2,6.2,9.6,6.2,16.2c0,23.2-14.1,28.3-27.6,29.8c2.2,1.9,4.1,5.5,4.1,11.2c0,8.1-0.1,14.6-0.1,16.6c0,1.6,1.1,3.5,4.1,2.9
		c24-8,41.3-30.6,41.3-57.3C-118.3,364.5-145.3,337.4-178.6,337.4z"/>
	<path id="XMLID_21_" class="st0" d="M-216.2,424.1c-0.1,0.3-0.6,0.4-1,0.2c-0.4-0.2-0.7-0.6-0.5-0.9c0.1-0.3,0.6-0.4,1-0.2
		C-216.3,423.4-216,423.8-216.2,424.1L-216.2,424.1z"/>
	<path id="XMLID_18_" class="st0" d="M-213.7,426.9c-0.3,0.3-0.9,0.1-1.2-0.3c-0.4-0.4-0.5-1-0.2-1.3c0.3-0.3,0.8-0.1,1.2,0.3
		C-213.5,426-213.4,426.6-213.7,426.9L-213.7,426.9z"/>
	<path id="XMLID_15_" class="st0" d="M-211.3,430.3c-0.4,0.3-1,0-1.3-0.5c-0.4-0.5-0.4-1.2,0-1.4c0.4-0.3,1,0,1.3,0.5
		S-211,430.1-211.3,430.3L-211.3,430.3z"/>
	<path id="XMLID_12_" class="st0" d="M-208.1,433.7c-0.3,0.4-1,0.3-1.6-0.2c-0.5-0.5-0.7-1.2-0.3-1.5c0.3-0.4,1-0.3,1.6,0.2
		C-207.9,432.6-207.7,433.3-208.1,433.7L-208.1,433.7z"/>
	<path id="XMLID_9_" class="st0" d="M-203.6,435.7c-0.1,0.5-0.8,0.7-1.5,0.5c-0.7-0.2-1.1-0.8-1-1.2c0.1-0.5,0.8-0.7,1.5-0.5
		C-203.9,434.6-203.4,435.2-203.6,435.7L-203.6,435.7z"/>
	<path id="XMLID_6_" class="st0" d="M-198.6,436c0,0.5-0.6,0.9-1.3,0.9c-0.7,0-1.3-0.4-1.3-0.9s0.6-0.9,1.3-0.9
		C-199.2,435.1-198.6,435.5-198.6,436L-198.6,436z"/>
	<path id="XMLID_3_" class="st0" d="M-194,435.2c0.1,0.5-0.4,1-1.1,1.1c-0.7,0.1-1.3-0.2-1.4-0.7s0.4-1,1.1-1.1
		C-194.8,434.4-194.1,434.7-194,435.2L-194,435.2z"/>
</g>
</svg>
