<?xml version="1.0" encoding="utf-8"?>
<!-- Generator: Adobe Illustrator 19.0.0, SVG Export Plug-In . SVG Version: 6.00 Build 0)  -->
<svg version="1.1" id="Layer_1" xmlns="http://www.w3.org/2000/svg" xmlns:xlink="http://www.w3.org/1999/xlink" x="0px" y="0px"
	 viewBox="0 0 128.8 122.5" style="enable-background:new 0 0 128.8 122.5;" xml:space="preserve">
<style type="text/css">
	.st0{fill-rule:evenodd;clip-rule:evenodd;fill:#191717;}
	.st1{fill:#191717;}
</style>
<g id="XMLID_2_">
	<path id="XMLID_24_" class="st0" d="M62.4,1.9C29,1.9,2,29,2,62.3c0,26.7,17.3,49.3,41.3,57.3c3,0.6,4.1-1.3,4.1-2.9
		c0-1.4-0.1-6.2-0.1-11.2C30.5,109.1,27,98.3,27,98.3c-2.7-7-6.7-8.8-6.7-8.8c-5.5-3.7,0.4-3.7,0.4-3.7c6.1,0.4,9.3,6.2,9.3,6.2
		c5.4,9.2,14.1,6.6,17.6,5c0.5-3.9,2.1-6.6,3.8-8.1c-13.4-1.5-27.5-6.7-27.5-29.8c0-6.6,2.4-12,6.2-16.2c-0.6-1.5-2.7-7.7,0.6-16
		c0,0,5.1-1.6,16.6,6.2c4.8-1.3,10-2,15.1-2c5.1,0,10.3,0.7,15.1,2C89,25.4,94.1,27,94.1,27c3.3,8.3,1.2,14.5,0.6,16
		c3.9,4.2,6.2,9.6,6.2,16.2c0,23.2-14.1,28.3-27.6,29.8c2.2,1.9,4.1,5.5,4.1,11.2c0,8.1-0.1,14.6-0.1,16.6c0,1.6,1.1,3.5,4.1,2.9
		c24-8,41.3-30.6,41.3-57.3C122.7,29,95.7,1.9,62.4,1.9z"/>
	<path id="XMLID_21_" class="st1" d="M24.8,88.6c-0.1,0.3-0.6,0.4-1,0.2c-0.4-0.2-0.7-0.6-0.5-0.9c0.1-0.3,0.6-0.4,1-0.2
		C24.7,87.9,25,88.3,24.8,88.6L24.8,88.6z M24.1,88.1"/>
	<path id="XMLID_18_" class="st1" d="M27.3,91.4c-0.3,0.3-0.9,0.1-1.2-0.3c-0.4-0.4-0.5-1-0.2-1.3c0.3-0.3,0.8-0.1,1.2,0.3
		C27.5,90.5,27.6,91.1,27.3,91.4L27.3,91.4z M26.7,90.7"/>
	<path id="XMLID_15_" class="st1" d="M29.7,94.8c-0.4,0.3-1,0-1.3-0.5c-0.4-0.5-0.4-1.2,0-1.4c0.4-0.3,1,0,1.3,0.5
		C30,93.9,30,94.6,29.7,94.8L29.7,94.8z M29.7,94.8"/>
	<path id="XMLID_12_" class="st1" d="M32.9,98.2c-0.3,0.4-1,0.3-1.6-0.2c-0.5-0.5-0.7-1.2-0.3-1.5c0.3-0.4,1-0.3,1.6,0.2
		C33.1,97.1,33.3,97.8,32.9,98.2L32.9,98.2z M32.9,98.2"/>
	<path id="XMLID_9_" class="st1" d="M37.4,100.2c-0.1,0.5-0.8,0.7-1.5,0.5c-0.7-0.2-1.1-0.8-1-1.2c0.1-0.5,0.8-0.7,1.5-0.5
		C37.1,99.1,37.6,99.7,37.4,100.2L37.4,100.2z M37.4,100.2"/>
	<path id="XMLID_6_" class="st1" d="M42.4,100.5c0,0.5-0.6,0.9-1.3,0.9c-0.7,0-1.3-0.4-1.3-0.9c0-0.5,0.6-0.9,1.3-0.9
		C41.8,99.6,42.4,100,42.4,100.5L42.4,100.5z M42.4,100.5"/>
	<path id="XMLID_3_" class="st1" d="M47,99.7c0.1,0.5-0.4,1-1.1,1.1c-0.7,0.1-1.3-0.2-1.4-0.7c-0.1-0.5,0.4-1,1.1-1.1
		C46.2,98.9,46.9,99.2,47,99.7L47,99.7z M47,99.7"/>
</g>
</svg>
