<?xml version="1.0" encoding="utf-8"?>
<!-- Generator: Adobe Illustrator 19.0.0, SVG Export Plug-In . SVG Version: 6.00 Build 0)  -->
<svg version="1.1" id="Layer_1_xA0_Image_1_" xmlns="http://www.w3.org/2000/svg" xmlns:xlink="http://www.w3.org/1999/xlink"
	 x="0px" y="0px" viewBox="0 0 274.5 273" style="enable-background:new 0 0 274.5 273;" xml:space="preserve">
<style type="text/css">
	.st0{fill:#0273B2;}
	.st1{fill:#FEFEFE;}
	.st2{fill:#F8F9F9;}
	.st3{fill:#358FC1;}
	.st4{fill:#D0D6D9;}
	.st5{fill:#8FC1DD;}
	.st6{fill:#3690C1;}
	.st7{fill:#D5E1E8;}
</style>
<g>
	<path class="st0" d="M242.6,14.8c0.3,0,0.6,0,1,0c0.4,0.2,0.8,0.2,1.2,0.2c3.4,0.1,6,1.8,8.6,3.8c2.4,1.9,4,4.4,5.1,7.2
		c0.7,1.7,0.6,3.5,0.7,5.2c0,0.5,0,1,0,1.5c0,70.1,0,140.2,0,210.3c-0.1,2.5,0.1,5-1,7.3c-2.1,4.9-5.7,8.3-10.7,10.1
		c-1.2,0.5-2.6,0.3-3.9,0.6c-0.4,0-0.8,0-1.2,0c-0.4-0.2-0.9-0.1-1.3-0.1c-70.2,0-140.3,0-210.5,0c-0.4,0-0.9-0.1-1.3,0.1
		c-0.4,0-0.8,0-1.2,0c-0.3-0.2-0.7-0.2-1-0.2c-5-0.5-8.6-3.2-11.4-7.3c-1.6-2.4-2.8-5-2.8-8c-0.2-71.9-0.2-143.7,0-215.6
		c0-6.5,6.2-12.8,11.9-14.6c1.2-0.4,2.5-0.3,3.8-0.5c0.4,0,0.9,0,1.3,0c69.8,0,139.7,0,209.5,0C240.4,14.8,241.5,15,242.6,14.8z"/>
	<path class="st1" d="M28.2,15c-2.9,0.6-5.7,1.5-8.1,3.4c-3.7,2.8-6.1,6.3-6.9,10.9c0,0.1-0.1,0.2-0.2,0.3c-0.2,0.7-0.1,1.4-0.1,2.1
		c0,0.2,0.1,0.6-0.4,0.6c0-5.5,0-11.1,0-16.6c0-0.7,0.1-0.8,0.8-0.8c5,0,10,0,14.9,0C28.4,14.8,28.4,14.9,28.2,15z"/>
	<path class="st1" d="M13,246c0.6,2.5,1.5,4.9,3,7.1c2.6,3.9,6.2,6.2,10.6,7.4c0.5,0.1,1.1,0,1.4,0.5c-4.9,0-9.8,0-14.7,0
		c-0.7,0-0.8-0.1-0.8-0.8c0-5.6,0-11.2,0-16.9c0.5,0,0.3,0.3,0.4,0.6C12.9,244.6,12.8,245.3,13,246z"/>
	<path class="st1" d="M243.6,261c0.3-0.5,0.8-0.3,1.2-0.4c8-1.7,14.2-8.7,14.3-17.3c0.1-0.2,0.2-0.2,0.2,0c0,5.6,0,11.3,0,16.9
		c0,0.6-0.1,0.7-0.7,0.7C253.6,261,248.6,261,243.6,261z"/>
	<path class="st1" d="M259.1,32.2c-0.5-9-6.1-15.4-15-17.1c-0.2,0-0.4,0-0.5-0.3c5,0,10,0,15,0c0.6,0,0.7,0.1,0.7,0.7
		c0,5.6,0,11.1,0,16.7C259.2,32.3,259.1,32.3,259.1,32.2z"/>
	<path class="st2" d="M13,246c-0.6-0.8,0.1-1.8-0.5-2.7c0-70.4,0-140.8,0-211.2c0.5-0.8-0.1-1.8,0.5-2.7c-0.5,7.5-0.2,15-0.2,22.5
		c0,57.3,0,114.6,0,171.8C12.8,231.2,12.5,238.6,13,246z"/>
	<path class="st3" d="M29.2,261c0.4-0.3,0.9-0.2,1.4-0.2c70.1,0,140.2,0,210.3,0c0.5,0,1-0.1,1.4,0.2C171.3,261,100.3,261,29.2,261z
		"/>
	<path class="st4" d="M259.1,32.2c0.1,0,0.2,0,0.2,0c0,70.4,0,140.8,0,211.2l-0.1,0c0,0-0.1,0-0.1,0c0-3.9,0-7.8,0-11.7
		c0-66.5,0-132.9,0-199.4C259,32.3,259,32.2,259.1,32.2z"/>
	<path class="st5" d="M239.4,15c-0.6,0-1.1,0-1.7,0c-68.8,0-137.7,0-206.5,0c-0.6,0-1.2,0-1.8,0c-0.1-0.1-0.1-0.1-0.1-0.1
		c0,0,0.1-0.1,0.1-0.1c70,0,140,0,210,0C239.6,14.8,239.6,14.9,239.4,15z"/>
	<path class="st6" d="M239.4,15c0-0.1,0-0.2,0-0.2c1,0,2.1,0,3.1,0C241.6,15.2,240.5,14.9,239.4,15z"/>
	<path class="st7" d="M29.5,14.8c0,0.1,0,0.1,0,0.2c-0.4,0-0.8,0-1.2,0c0-0.1,0-0.1,0-0.2C28.7,14.8,29.1,14.8,29.5,14.8z"/>
	<path class="st1" d="M108.7,165.8c0-19.1,0-38.2,0-57.3c0-1.1,0.2-1.4,1.4-1.4c10.7,0,21.4,0,32.2,0c1.1,0,1.4,0.3,1.4,1.4
		c-0.1,4.5,0,9,0,13.5c0,0.4-0.3,1,0.3,1.1c0.5,0.1,0.6-0.5,0.8-0.8c3.3-5.6,7.8-9.8,13.4-12.9c6-3.4,12.6-5,19.5-5.2
		c6.8-0.1,13.6,0.5,20.1,2.8c9.8,3.4,16.4,10.1,20.2,19.6c3.2,7.8,4.3,16.1,4.6,24.4c0.6,13.3,0.2,26.7,0.3,40
		c0.1,10.6,0,21.3,0,31.9c0,1.2-0.2,1.5-1.5,1.5c-11.2-0.1-22.4-0.1-33.6,0c-1.2,0-1.6-0.2-1.6-1.5c0-19.7,0-39.4,0-59
		c0-5.2-0.3-10.5-1.8-15.5c-1.1-3.7-2.9-6.9-6.1-9.2c-2.6-1.9-5.5-2.7-8.7-3c-4-0.3-7.9,0-11.6,1.4c-5.3,2-8.5,6-10.4,11.2
		c-1.9,5.4-2.4,11-2.4,16.7c0,19.2,0,38.3,0,57.5c0,1.3-0.4,1.5-1.5,1.5c-11.2,0-22.3,0-33.5,0c-1.1,0-1.4-0.3-1.4-1.4
		C108.7,204,108.7,184.9,108.7,165.8z"/>
	<path class="st1" d="M85.7,166c0,19.1,0,38.1,0,57.2c0,1.1-0.3,1.4-1.4,1.4c-11.2,0-22.5,0-33.7,0c-1.1,0-1.3-0.3-1.3-1.3
		c0-38.3,0-76.5,0-114.8c0-1.1,0.3-1.4,1.4-1.4c11.2,0,22.5,0,33.7,0c1.1,0,1.3,0.3,1.3,1.3C85.7,127.6,85.7,146.8,85.7,166z"/>
	<path class="st1" d="M46.4,69.8c0.1-11.7,9.6-21.2,21.2-21.2c11.7,0.1,21.3,9.7,21.2,21.3c-0.1,11.7-9.7,21.2-21.4,21.1
		C55.8,91,46.3,81.4,46.4,69.8z"/>
</g>
</svg>
